<svg width="20" height="20" viewBox="0 0 20 20" fill="none" xmlns="http://www.w3.org/2000/svg">

    <symbol id="chack-circle">
        <path fill="currentColor" d="M14.59 5.58L8 12.17L4.41 8.59L3 10L8 15L16 7L14.59 5.58ZM10 0C4.48 0 0 4.48 0 10C0 15.52 4.48 20 10 20C15.52 20 20 15.52 20 10C20 4.48 15.52 0 10 0ZM10 18C5.58 18 2 14.42 2 10C2 5.58 5.58 2 10 2C14.42 2 18 5.58 18 10C18 14.42 14.42 18 10 18Z"/>
    </symbol>

    <symbol id="search">
        <path fill="currentColor" d="M12.5 11H11.71L11.43 10.73C12.41 9.59 13 8.11 13 6.5C13 2.91 10.09 0 6.5 0C2.91 0 0 2.91 0 6.5C0 10.09 2.91 13 6.5 13C8.11 13 9.59 12.41 10.73 11.43L11 11.71V12.5L16 17.49L17.49 16L12.5 11ZM6.5 11C4.01 11 2 8.99 2 6.5C2 4.01 4.01 2 6.5 2C8.99 2 11 4.01 11 6.5C11 8.99 8.99 11 6.5 11Z"/>
    </symbol>

    <symbol id="edit">
        <path fill="currentColor" d="M0 14.25V18H3.75L14.81 6.94L11.06 3.19L0 14.25ZM17.71 4.04C18.1 3.65 18.1 3.02 17.71 2.63L15.37 0.289998C14.98 -0.100002 14.35 -0.100002 13.96 0.289998L12.13 2.12L15.88 5.87L17.71 4.04Z"/>
    </symbol>

    <symbol id="delete">
        <path fill="currentColor" d="M1 16C1 17.1 1.9 18 3 18H11C12.1 18 13 17.1 13 16V4H1V16ZM14 1H10.5L9.5 0H4.5L3.5 1H0V3H14V1Z"/>
    </symbol>

</svg>

